<svg id="Layer_1" data-name="Layer 1" xmlns="http://www.w3.org/2000/svg" viewBox="0 0 54 54"><defs><style>.cls-1{fill:#d30500;}.cls-2{fill:none;}</style></defs><title>nw_coverage_icon</title><path class="cls-1" d="M1.86,23.9H9a1.67,1.67,0,1,0,0-3.33H1.86a1.67,1.67,0,1,0,0,3.33Z"/><path class="cls-1" d="M1.86,17.23H13.6a1.67,1.67,0,1,0,0-3.33H1.86a1.67,1.67,0,1,0,0,3.33Z"/><path class="cls-1" d="M51.73,24.55,48.3,23.07l-3-5.77a5.26,5.26,0,0,0-4.75-2.88H35.84v-1a5.33,5.33,0,0,0-5.31-5.35H1.86a1.67,1.67,0,1,0,0,3.33H30.53a2,2,0,0,1,1.41.6,2,2,0,0,1,.57,1.42V27.24H1.86a1.67,1.67,0,1,0,0,3.33H32.51v5.73H16.17a6.54,6.54,0,0,0-5.78-3.52h0a6.55,6.55,0,0,0-5.81,3.52h-.9c-.08,0-.12-.06-.12-.16v-5H.19v5a3.47,3.47,0,0,0,3.45,3.49h.13A6.54,6.54,0,0,0,5.68,44a6.46,6.46,0,0,0,4.64,1.94h0A6.49,6.49,0,0,0,15,44a6.55,6.55,0,0,0,1.94-4.45H36.18a6.58,6.58,0,0,0,6.55,6.35h0a6.58,6.58,0,0,0,6.57-6.36h1a3.46,3.46,0,0,0,3.45-3.49V27.73A3.47,3.47,0,0,0,51.73,24.55ZM10.35,42.62a3.25,3.25,0,1,1,3.25-3.25A3.26,3.26,0,0,1,10.35,42.62ZM35.84,17.75H40.6a2,2,0,0,1,1.79,1.06l2,3.84H35.84Zm6.93,24.87A3.25,3.25,0,1,1,46,39.37,3.26,3.26,0,0,1,42.77,42.62Zm7.73-6.49c0,.1,0,.16-.13.16H48.58a6.57,6.57,0,0,0-11.63,0H35.84V26H46.77l3.62,1.59a.23.23,0,0,1,.11.2Z"/><rect class="cls-2" x="0.19" width="54" height="54"/></svg>