<svg id="Layer_1" data-name="Layer 1" xmlns="http://www.w3.org/2000/svg" viewBox="0 0 54 54"><defs><style>.cls-1{fill:#d30500;}.cls-2{fill:none;}</style></defs><title>nw_coverage_icon</title><path class="cls-1" d="M40.31,7.92H13.69A1.67,1.67,0,0,0,12,9.59V44.41a1.67,1.67,0,0,0,.89,1.48,1.76,1.76,0,0,0,.78.19,1.66,1.66,0,0,0,.94-.29L27,37.38l12.36,8.41a1.7,1.7,0,0,0,1.73.09A1.65,1.65,0,0,0,42,44.41V9.59A1.67,1.67,0,0,0,40.31,7.92Zm-1.67,3.34v30L27.94,34a1.66,1.66,0,0,0-.94-.29,1.63,1.63,0,0,0-.94.29l-10.7,7.27v-30Z"/><rect class="cls-2" x="0.19" width="54" height="54"/></svg>