<svg id="Layer_1" data-name="Layer 1" xmlns="http://www.w3.org/2000/svg" viewBox="0 0 54 54"><defs><style>.cls-1{fill:#d30500;}.cls-2{fill:none;}</style></defs><title>nw_coverage_icon</title><path class="cls-1" d="M44.39,16.88a1.8,1.8,0,0,0-.08-.21,1.7,1.7,0,0,0-1.07-.91L27.73,8.24a1.74,1.74,0,0,0-1.51,0L10.49,15.87a1.72,1.72,0,0,0-1,1.56V36.57a1.72,1.72,0,0,0,1,1.55l15.65,7.59.29.16.56.06h.2l.54-.09.14-.14L43.52,38.1a1.74,1.74,0,0,0,1-1.55V16.93ZM25.24,26.15V41.44L13,35.48V20.19Zm-1.45-12.9L27,11.71l11.8,5.72L35.59,19Zm4.9,12.9,4.92-2.38V27a1.73,1.73,0,0,0,3.45,0V22.09l4-1.93V35.45l-12.34,6Zm2.95-5.26L27,23.15l-11.8-5.72,4.67-2.26Z"/><rect class="cls-2" x="0.19" width="54" height="54"/></svg>