<svg id="Layer_1" data-name="Layer 1" xmlns="http://www.w3.org/2000/svg" viewBox="0 0 54 54"><defs><style>.cls-1{fill:#fff;}.cls-2{fill:none;}</style></defs><title>nw_coverage_icon_white</title><path class="cls-1" d="M52.05,29.35l-5.4.69-.47-3.8,4-.52a1.09,1.09,0,0,1,.74.19l.46.33L52.91,24l-.46-.32A3.82,3.82,0,0,0,49.77,23L38.38,24.46a3.88,3.88,0,0,0-2.88,1.91l-2.74,4.77-2.25-1.56a3.52,3.52,0,0,0-4.57.54l-.38.42,2.07,1.86L28,32a.73.73,0,0,1,.94-.11l.55.38a1.49,1.49,0,0,0-.51.36,1.68,1.68,0,0,0-1.3.06,4,4,0,0,0-.82.57,3.49,3.49,0,0,0-1.15-.55l-.41-.55a1.35,1.35,0,0,0-1-.55,1.3,1.3,0,0,0-1,.35l0-.07a1.4,1.4,0,0,0-1.93-.35l0,0-3-5.2a3.93,3.93,0,0,0-2.87-1.91L4,23a3.78,3.78,0,0,0-2.42.49l-.49.29L2.5,26.13,3,25.84a1,1,0,0,1,.65-.13l4,.51L7.12,30,1.9,29.36l-.35,2.75,5.24.67-.57,4.59L1.9,36.82l-.35,2.75,11.73,1.49a5.5,5.5,0,0,0,4.79,4.88,5.27,5.27,0,0,0,.68,0A5.5,5.5,0,0,0,23.9,42.4l2.08.26a1.33,1.33,0,0,0,.89-.19,1.43,1.43,0,0,0,.92.21L30,42.39a5.46,5.46,0,0,0,4.49,3.55,5.07,5.07,0,0,0,.68,0,5.51,5.51,0,0,0,5.45-4.82.31.31,0,0,1,0-.1L52.4,39.57l-.35-2.75-4.5.57L47,32.79l5.42-.68ZM30.54,35.24h0l.28.11A1.39,1.39,0,0,0,32.35,35l.38-.41,11.5-1.46.57,4.6-4.54.57a5.5,5.5,0,0,0-10.49,1.33l-.95.12-.45-3.52a1,1,0,0,1,.11-.63,2.18,2.18,0,0,0,1.06.24A1.4,1.4,0,0,0,30.54,35.24Zm2,4.91a2.73,2.73,0,0,1,2.7-2.4l.33,0a2.73,2.73,0,0,1,1.82,1,2.69,2.69,0,0,1,.56,2,2.73,2.73,0,0,1-5.41-.66Zm3.31-8.74,2.09-3.66a1.11,1.11,0,0,1,.82-.53l4.71-.62.46,3.78ZM16,40.15a2.74,2.74,0,0,1,2.7-2.4l.33,0a2.73,2.73,0,0,1,1.82,1,2.69,2.69,0,0,1,.56,2A2.73,2.73,0,0,1,16,40.15ZM25.45,36a.57.57,0,0,1,0,.18L25,39.73l-.78-.09a5.41,5.41,0,0,0-1.82-3.31,5.51,5.51,0,0,0-2-1.11,1.13,1.13,0,0,0,.26,0,1.35,1.35,0,0,0,.81-.3l.32-.26.19.27a1.38,1.38,0,0,0,1.05.6,1.4,1.4,0,0,0,1.11-.45,1.62,1.62,0,0,0,.68.24.66.66,0,0,1,.45.18A.6.6,0,0,1,25.45,36Zm-5.4-.82a5.48,5.48,0,0,0-6.37,3.18L9,37.72l.57-4.6,9.76,1.24a1.37,1.37,0,0,0,.35.51A1.53,1.53,0,0,0,20.05,35.13ZM9.88,30.37l.47-3.79,4.71.61a1.11,1.11,0,0,1,.81.55L18,31.39Z"/><path class="cls-1" d="M20.13,28.66l2.58-1-1.66-4.16,2.62,2a1.36,1.36,0,0,0,1,.27,1.43,1.43,0,0,0,.92-.55,1.32,1.32,0,0,0,.21-.43l1.33-4.42L29,24.85a1.38,1.38,0,0,0,1.8.77l.22-.11L33.4,24l-1.34,2.68,2.48,1.24,3.54-7.09a1.39,1.39,0,0,0,.09-1.06,1.42,1.42,0,0,0-.69-.81,1.39,1.39,0,0,0-1.37.07l-5.17,3.24L28.27,15.6a1.36,1.36,0,0,0-1.36-.88,1.39,1.39,0,0,0-1.27,1L23.75,22l-5-3.74a1.34,1.34,0,0,0-1-.27,1.36,1.36,0,0,0-.92.54,1.39,1.39,0,0,0-.18,1.35Z"/><polygon class="cls-1" points="6.63 16.42 7.69 15.36 8.75 16.42 10.72 14.46 9.65 13.4 10.72 12.33 8.75 10.37 7.69 11.43 6.63 10.37 4.66 12.33 5.73 13.4 4.66 14.46 6.63 16.42"/><rect class="cls-1" x="10.41" y="15.55" width="2.78" height="6.4" transform="translate(-9.13 11.47) rotate(-38.64)"/><rect class="cls-1" x="30.4" y="14.79" width="7.56" height="2.78" transform="translate(-1.43 28.91) rotate(-44.99)"/><polygon class="cls-1" points="38.25 14.07 39.32 13.01 40.38 14.07 42.34 12.11 41.28 11.05 42.34 9.98 40.38 8.02 39.32 9.08 38.25 8.02 36.29 9.98 37.35 11.05 36.29 12.11 38.25 14.07"/><rect class="cls-2" x="0.19" width="54" height="54"/></svg>