<svg id="Layer_1" data-name="Layer 1" xmlns="http://www.w3.org/2000/svg" viewBox="0 0 54 54"><defs><style>.cls-1{fill:#d30500;}.cls-2{fill:none;}</style></defs><title>nw_coverage_icon</title><path class="cls-1" d="M27,7.57A19.43,19.43,0,1,0,46.43,27,19.46,19.46,0,0,0,27,7.57Zm1.61,27.81V28.61h5.62a30.44,30.44,0,0,1-1.06,6.77Zm9.71,3.21a16.52,16.52,0,0,1-4.33,3,19.09,19.09,0,0,0,1.48-3ZM28.61,15.41V11.25A9.4,9.4,0,0,1,32,15.41Zm6.86,0a19.09,19.09,0,0,0-1.48-3,16.52,16.52,0,0,1,4.33,3Zm-6.86,10V18.63h4.56a30.26,30.26,0,0,1,1.06,6.76Zm14.52,3.22a16.31,16.31,0,0,1-2.25,6.77H36.5a34,34,0,0,0,1-6.77Zm0-3.22H37.45a33.8,33.8,0,0,0-1-6.76h4.38A16.22,16.22,0,0,1,43.13,25.39ZM32,38.59a9.4,9.4,0,0,1-3.36,4.16V38.59ZM17.51,35.38H13.12a16.31,16.31,0,0,1-2.25-6.77h5.68A33.28,33.28,0,0,0,17.51,35.38Zm7.88-16.75v6.76H19.77a30.26,30.26,0,0,1,1.06-6.76Zm-9.71-3.22a16.52,16.52,0,0,1,4.33-3,20,20,0,0,0-1.48,3Zm9.71,13.2v6.77H20.83a30.44,30.44,0,0,1-1.06-6.77ZM10.87,25.39a16.31,16.31,0,0,1,2.25-6.77h4.39a33.28,33.28,0,0,0-1,6.77Zm14.52,13.2v4.16A9.4,9.4,0,0,1,22,38.59Zm-5.38,3a16.52,16.52,0,0,1-4.33-3h2.85A20,20,0,0,0,20,41.63Zm2-26.22a9.4,9.4,0,0,1,3.36-4.16v4.16Z"/><rect class="cls-2" x="0.19" width="54" height="54"/></svg>