<svg id="Layer_1" data-name="Layer 1" xmlns="http://www.w3.org/2000/svg" viewBox="0 0 54 54"><defs><style>.cls-1{fill:#fff;}.cls-2{fill:none;}</style></defs><title>nw_coverage_icon_white</title><path class="cls-1" d="M28.67,9.86V9.74a1.67,1.67,0,0,0-3.34,0v.12c-9.72.81-17.26,8.5-17.26,17.72a1.68,1.68,0,0,0,2.37,1.52c4.81-2.19,7.87.26,8.39.73a1.67,1.67,0,0,0,2.31.21.57.57,0,0,0,.11-.11c.05,0,.1-.09.24-.19a8.44,8.44,0,0,1,3.84-1.52V41.38a4.55,4.55,0,0,0,9.1,0,1.68,1.68,0,0,0-3.35,0,1.21,1.21,0,0,1-2.41,0V28.22a8.42,8.42,0,0,1,3.87,1.54c.12.09.16.14.2.17l.11.1a1.65,1.65,0,0,0,2.27-.15c.57-.52,3.64-3,8.44-.78a1.68,1.68,0,0,0,2.37-1.52C45.93,18.36,38.39,10.67,28.67,9.86Zm3.47,15.86a14,14,0,0,0-10.28,0c.37-5.76,1.75-8.86,2.88-10.46a5.79,5.79,0,0,1,2.26-2,5.5,5.5,0,0,1,2.11,1.83C30.3,16.65,31.76,19.77,32.14,25.72Zm10.23-.55a10.87,10.87,0,0,0-6.87.58c-.29-4.95-1.3-8.87-3-11.69A14.92,14.92,0,0,1,42.37,25.17ZM21.52,14.06c-1.72,2.82-2.73,6.74-3,11.69a10.52,10.52,0,0,0-4.25-.89,11.86,11.86,0,0,0-2.62.31A14.92,14.92,0,0,1,21.52,14.06Z"/><rect class="cls-2" x="0.19" width="54" height="54"/></svg>