<svg id="Layer_1" data-name="Layer 1" xmlns="http://www.w3.org/2000/svg" viewBox="0 0 54 54"><defs><style>.cls-1{fill:#d30500;}.cls-2{fill:none;}</style></defs><title>nw_coverage_icon</title><path class="cls-1" d="M39.71,14.29A6.46,6.46,0,0,0,33.26,8H14.48A6.47,6.47,0,0,0,8,14.48V33.26a6.46,6.46,0,0,0,6.27,6.45A6.46,6.46,0,0,0,20.74,46H39.52A6.47,6.47,0,0,0,46,39.52V20.74A6.46,6.46,0,0,0,39.71,14.29Zm-28.17,19V14.48a2.94,2.94,0,0,1,2.94-2.94H33.26a3,3,0,0,1,2.92,2.74H20.74a6.47,6.47,0,0,0-6.46,6.46V36.18A3,3,0,0,1,11.54,33.26Zm30.92,6.26a2.94,2.94,0,0,1-2.94,2.94H20.74a2.94,2.94,0,0,1-2.94-2.94V20.74a2.94,2.94,0,0,1,2.94-2.94H39.52a2.94,2.94,0,0,1,2.94,2.94Z"/><path class="cls-1" d="M36.39,28.37h-4.5v-4.5a1.76,1.76,0,0,0-3.52,0v4.5h-4.5a1.76,1.76,0,0,0,0,3.52h4.5v4.5a1.76,1.76,0,0,0,3.52,0v-4.5h4.5a1.76,1.76,0,0,0,0-3.52Z"/><rect class="cls-2" x="0.19" width="54" height="54"/></svg>