<svg id="Layer_1" data-name="Layer 1" xmlns="http://www.w3.org/2000/svg" viewBox="0 0 54 54"><defs><style>.cls-1{fill:#d30500;}.cls-2{fill:none;}</style></defs><title>nw_coverage_icon</title><path class="cls-1" d="M22.21,27.13a1.59,1.59,0,0,0,2.25,0,1.59,1.59,0,0,0-2.25-2.24A1.59,1.59,0,0,0,22.21,27.13Z"/><path class="cls-1" d="M26.71,29.37a1.59,1.59,0,1,0,2.25,0,1.59,1.59,0,0,0-2.25,0Z"/><circle class="cls-1" cx="27.01" cy="22.31" r="1.59"/><circle class="cls-1" cx="31.52" cy="26.8" r="1.59"/><path class="cls-1" d="M23.8,43.35,43.34,23.72A9.27,9.27,0,0,0,30.2,10.65L10.66,30.28A9.27,9.27,0,0,0,23.8,43.35Zm3.44-25.19,8.6,8.56-8.08,8.11-8.6-8.56Zm5.23-5.26a6.06,6.06,0,0,1,10.36,4.27,6,6,0,0,1-1.76,4.29l-3,3-8.6-8.56ZM11.17,36.83a6,6,0,0,1,1.76-4.29l4-4,8.6,8.56-4,4a6.06,6.06,0,0,1-10.36-4.27Z"/><rect class="cls-2" x="0.19" width="54" height="54"/></svg>