<svg id="Layer_1" data-name="Layer 1" xmlns="http://www.w3.org/2000/svg" viewBox="0 0 84 84"><defs><style>.cls-1{fill:#1a1a1a;}.cls-2{fill:none;}</style></defs><title>nw_home_icon_services</title><path class="cls-1" d="M71.93,48.33V32.41a3.56,3.56,0,0,0-1.74-3.07L56.44,21.41A15,15,0,1,0,27,17.46a15.1,15.1,0,0,0,.53,3.95l-13.83,8a3.53,3.53,0,0,0-1.65,3V48.33a15,15,0,0,0,3.47,29.55,14.89,14.89,0,0,0,10.84-4.67l14,8a3.18,3.18,0,0,0,1.65.36h1.38l14.25-8.23a14.92,14.92,0,0,0,10.83,4.59,15.18,15.18,0,0,0,15-15A14.83,14.83,0,0,0,71.93,48.33ZM76.48,62.9a8,8,0,1,1-8-8A8,8,0,0,1,76.48,62.9ZM54.09,67.18,42,74.13l-12.1-7a14.36,14.36,0,0,0,.62-4.21A14.82,14.82,0,0,0,19,48.33V34.47L31,27.61A14.88,14.88,0,0,0,42,32.44a15.09,15.09,0,0,0,11-4.86l12,6.89V48.33A14.82,14.82,0,0,0,53.48,62.9,15.11,15.11,0,0,0,54.09,67.18ZM42,9.43a8,8,0,0,1,8,8,8,8,0,1,1-8-8ZM23.57,62.9a8,8,0,0,1-.93,3.71,1.82,1.82,0,0,0-.3.5s0,.09,0,.12a8,8,0,1,1,1.27-4.33Z"/><rect class="cls-2" width="84" height="84"/></svg>