<svg id="Layer_1" data-name="Layer 1" xmlns="http://www.w3.org/2000/svg" viewBox="0 0 84 84"><defs><style>.cls-1{fill:#1a1a1a;}.cls-2{fill:none;}</style></defs><title>nw_home_icon_services</title><path class="cls-1" d="M65.56,31.84a2.93,2.93,0,0,0-2.92,2.93V53.86L42,67.56,21.36,53.86V19.77l.06,0a56.37,56.37,0,0,1,39.4-.66L42,43.27,36.37,38a2.93,2.93,0,0,0-4,4.29l8,7.41a2.93,2.93,0,0,0,2,.78h.24a3,3,0,0,0,2.06-1.12L67.92,19.51c0-.07.11-.18.17-.28a2.69,2.69,0,0,0,.26-.59,3.17,3.17,0,0,0,.11-.57,2.72,2.72,0,0,0-.1-1.11,2.89,2.89,0,0,0-.49-1l-.2-.24-.33-.3a1.94,1.94,0,0,0-.33-.21l-2.3-.94a62.15,62.15,0,0,0-45.42,0l-1.92.75a2.9,2.9,0,0,0-1.86,2.72V55.42a2.91,2.91,0,0,0,1.31,2.44L40.38,73.51a2.92,2.92,0,0,0,3.24,0L67.18,57.86a2.91,2.91,0,0,0,1.31-2.44V34.77A2.93,2.93,0,0,0,65.56,31.84Z"/><rect class="cls-2" width="84" height="84"/></svg>