<svg id="Layer_1" data-name="Layer 1" xmlns="http://www.w3.org/2000/svg" viewBox="0 0 84 84"><defs><style>.cls-1{fill:#1a1a1a;}.cls-2{fill:none;}</style></defs><title>nw_home_icon_services</title><path class="cls-1" d="M73.51,9.72h-63a5.72,5.72,0,0,0-5.71,5.72V58.19a5.72,5.72,0,0,0,5.71,5.72h36l-1,6a3.72,3.72,0,0,0,1.39,3.72,3.46,3.46,0,0,0,2,.64,4.14,4.14,0,0,0,1.94-.51l7.9-4.15a1.32,1.32,0,0,1,.48,0l7.92,4.17a3.77,3.77,0,0,0,4-.14,3.69,3.69,0,0,0,1.39-3.71l-1-6h2a5.72,5.72,0,0,0,5.71-5.72V15.44A5.72,5.72,0,0,0,73.51,9.72Zm-28.34,36a13.83,13.83,0,0,0,2.9,8.45l-.67,4.07-37-.07.07-42.83,63.09.08V58.19l-3,.07-.68-4.06a13.82,13.82,0,1,0-24.74-8.46Zm7.95,12.51a14,14,0,0,0,11.75,0L66.29,67l-4.45-2.34a6.48,6.48,0,0,0-5.7,0L51.69,67ZM59,53.92a8.18,8.18,0,1,1,8.18-8.18A8.19,8.19,0,0,1,59,53.92Z"/><path class="cls-1" d="M65.83,22H16.61a3,3,0,0,0,0,6.08H65.83a3,3,0,0,0,0-6.08Z"/><path class="cls-1" d="M37.45,33.78H16.61a3,3,0,1,0,0,6.07H37.45a3,3,0,1,0,0-6.07Z"/><rect class="cls-2" width="84" height="84"/></svg>